<svg xmlns="http://www.w3.org/2000/svg" width="64" height="64"><path fill="#272727" d="M64 12.151a26.248 26.248 0 01-7.541 2.067 13.167 13.167 0 005.773-7.264 26.285 26.285 0 01-8.338 3.186 13.113 13.113 0 00-9.584-4.146c-7.251 0-13.13 5.879-13.13 13.13 0 1.029.116 2.031.34 2.992-10.912-.548-20.588-5.775-27.064-13.719a13.07 13.07 0 00-1.778 6.601c0 4.556 2.318 8.575 5.841 10.929a13.08 13.08 0 01-5.947-1.642l-.001.165c0 6.362 4.526 11.668 10.533 12.875a13.153 13.153 0 01-5.929.225c1.671 5.216 6.52 9.013 12.266 9.118a26.343 26.343 0 01-16.307 5.621c-1.06 0-2.105-.062-3.132-.184a37.163 37.163 0 0020.128 5.9c24.151 0 37.358-20.008 37.358-37.359 0-.569-.013-1.136-.038-1.699a26.666 26.666 0 006.552-6.797z"/></svg>